HIERARCHY
ROOT Hips
{
	OFFSET 0.000000 0.000000 0.000000
	CHANNELS 6 Xposition Yposition Zposition Zrotation Xrotation Yrotation
	JOINT Spine
	{
		OFFSET 0.000000 -0.000060 365.647827
		CHANNELS 6 Xposition Yposition Zposition Zrotation Xrotation Yrotation
		JOINT Spine1
		{
			OFFSET 0.000000 -0.000135 827.386536
			CHANNELS 6 Xposition Yposition Zposition Zrotation Xrotation Yrotation
			JOINT Neck
			{
				OFFSET 0.000000 -0.000149 916.568909
				CHANNELS 6 Xposition Yposition Zposition Zrotation Xrotation Yrotation
				JOINT Head
				{
					OFFSET 0.000000 -89.182503 691.163635
					CHANNELS 6 Xposition Yposition Zposition Zrotation Xrotation Yrotation
					End Site
					{
						OFFSET 0.000000 -0.000143 891.824036
					}
				}
			}
			JOINT LeftShoulder
			{
				OFFSET 177.992798 19.451593 747.856750
				CHANNELS 6 Xposition Yposition Zposition Zrotation Xrotation Yrotation
				JOINT LeftArm
				{
					OFFSET 515.877136 0.000000 0.000000
					CHANNELS 6 Xposition Yposition Zposition Zrotation Xrotation Yrotation
					JOINT LeftForeArm
					{
						OFFSET 1337.809814 0.000000 0.000000
						CHANNELS 6 Xposition Yposition Zposition Zrotation Xrotation Yrotation
						JOINT LeftHand
						{
							OFFSET 1196.500488 0.000000 0.000000
							CHANNELS 6 Xposition Yposition Zposition Zrotation Xrotation Yrotation
							End Site
							{
								OFFSET 668.868103 0.000000 0.000000
							}
						}
					}
				}
			}
			JOINT RightShoulder
			{
				OFFSET -178.356552 19.451593 747.856750
				CHANNELS 6 Xposition Yposition Zposition Zrotation Xrotation Yrotation
				JOINT RightArm
				{
					OFFSET -515.877136 0.000000 0.000000
					CHANNELS 6 Xposition Yposition Zposition Zrotation Xrotation Yrotation
					JOINT RightForeArm
					{
						OFFSET -1337.809814 0.000000 0.000000
						CHANNELS 6 Xposition Yposition Zposition Zrotation Xrotation Yrotation
						JOINT RightHand
						{
							OFFSET -1196.500488 0.000000 0.000000
							CHANNELS 6 Xposition Yposition Zposition Zrotation Xrotation Yrotation
							End Site
							{
								OFFSET -668.868103 0.000000 0.000000
							}
						}
					}
				}
			}
		}
	}
	JOINT LeftUpLeg
	{
		OFFSET 445.911926 0.000000 0.000000
		CHANNELS 6 Xposition Yposition Zposition Zrotation Xrotation Yrotation
		JOINT LeftLeg
		{
			OFFSET 0.000000 0.000378 -2320.838135
			CHANNELS 6 Xposition Yposition Zposition Zrotation Xrotation Yrotation
			JOINT LeftFoot
			{
				OFFSET 0.000000 0.000304 -1864.391968
				CHANNELS 6 Xposition Yposition Zposition Zrotation Xrotation Yrotation
				JOINT LeftToeBase
				{
					OFFSET 0.000000 -668.867859 -289.842834
					CHANNELS 6 Xposition Yposition Zposition Zrotation Xrotation Yrotation
					End Site
					{
						OFFSET 0.000000 -178.364792 0.000000
					}
				}
			}
		}
	}
	JOINT RightUpLeg
	{
		OFFSET -445.911926 0.000000 0.000000
		CHANNELS 6 Xposition Yposition Zposition Zrotation Xrotation Yrotation
		JOINT RightLeg
		{
			OFFSET 0.000000 0.000378 -2320.838135
			CHANNELS 6 Xposition Yposition Zposition Zrotation Xrotation Yrotation
			JOINT RightFoot
			{
				OFFSET 0.000000 0.000304 -1864.391968
				CHANNELS 6 Xposition Yposition Zposition Zrotation Xrotation Yrotation
				JOINT RightToeBase
				{
					OFFSET 0.000000 -668.867859 -289.842834
					CHANNELS 6 Xposition Yposition Zposition Zrotation Xrotation Yrotation
					End Site
					{
						OFFSET 0.000000 -178.364792 0.000000
					}
				}
			}
		}
	}
}
MOTION
Frames: 4
Frame Time: 0.041667
-152.326782 598.420166 3826.762939 -0.656171 9.003614 -2.752367 0.000041 -0.000090 365.648010 2.326502 -7.636764 -4.107577 -0.000011 -0.000214 827.386353 0.856180 4.005362 -0.316786 0.000005 -0.000158 916.568970 20.866597 11.997259 -22.764525 -0.000350 -89.182526 691.164429 21.754451 13.804182 22.456412 177.992767 19.451546 747.856567 -10.579522 -2.056136 -2.811876 515.877319 -0.000073 0.000488 -12.806377 23.457484 23.655226 1337.809937 0.000267 -0.000304 -6.859240 -12.593696 -17.383325 1196.500732 -0.000099 0.000304 0.494290 -13.785910 -38.874544 -178.356537 19.451569 747.857117 6.360640 -0.146136 9.125201 -515.877075 -0.000038 0.000234 82.254356 54.587674 -52.407539 -1337.809937 -0.000276 0.000237 -117.565656 -215.763217 -136.502259 -1196.500122 0.000137 0.000286 179.953505 -190.006068 231.644964 445.911987 0.000019 0.000343 -12.610192 -11.430871 -30.812971 0.000004 0.000440 -2320.837891 32.646641 24.070024 13.036781 -0.000188 0.000345 -1864.392090 19.369163 -3.689736 9.244501 -0.000095 -668.867859 -289.842804 0.000003 -0.000001 -0.000000 -445.911926 0.000067 -0.000038 1.852533 -21.558140 34.379317 0.000135 0.000451 -2320.838623 -3.832108 34.506799 -30.736381 0.000148 0.000402 -1864.392212 -32.263966 -21.279487 -5.590946 -0.000037 -668.868042 -289.843170 -0.000000 0.000001 -0.000001 
-157.251266 600.478027 3822.603027 -0.623078 9.060858 -2.865236 -0.000045 -0.000052 365.647461 2.262511 -7.565392 -4.114703 0.000022 -0.000147 827.386536 0.831053 3.942410 -0.225860 -0.000146 -0.000005 916.569153 21.026188 12.007502 -22.842734 -0.000165 -89.182617 691.163635 21.896082 13.877521 22.581968 177.992706 19.451696 747.857056 -10.778295 -2.208152 -2.907037 515.877380 -0.000002 0.000638 -11.321748 21.592026 22.258277 1337.809814 0.000021 -0.000187 -5.541625 -9.682563 -13.127275 1196.500977 -0.000241 0.000737 1.141739 -10.698629 -38.083745 -178.356644 19.451693 747.856750 6.422694 -0.120937 9.135986 -515.877136 0.000070 -0.000386 81.649229 54.875741 -51.953988 -1337.809448 -0.000408 0.000315 -117.030743 -215.730541 -137.097893 -1196.500488 0.000030 -0.000458 180.368084 -190.298127 231.395580 445.911926 0.000057 -0.000019 -12.749062 -11.483612 -30.895193 -0.000186 0.000458 -2320.838135 32.719990 24.194497 13.138901 0.000041 0.000307 -1864.392090 19.373190 -3.688500 9.261920 -0.000126 -668.867798 -289.842834 0.000003 0.000000 0.000001 -445.912018 0.000048 -0.000210 1.994910 -21.819147 34.649263 0.000247 0.000526 -2320.838379 -3.398957 34.913212 -31.223954 -0.000003 0.000477 -1864.392334 -32.430097 -21.440123 -5.653756 -0.000027 -668.868042 -289.842865 0.000001 0.000001 0.000001 
-163.539871 601.215759 3818.084717 -0.510361 9.028060 -2.934104 0.000007 -0.000171 365.647644 2.110869 -7.469625 -4.111639 -0.000002 -0.000109 827.386475 0.778620 3.943711 -0.195318 0.000083 -0.000081 916.569458 21.204179 12.032040 -22.943452 -0.000138 -89.182655 691.163635 22.060138 13.898117 22.743432 177.992889 19.451683 747.857117 -10.968357 -2.314489 -3.054488 515.877319 0.000026 0.000691 -9.485691 18.858367 20.724771 1337.809937 0.000235 -0.000636 -4.698951 -6.184183 -8.768395 1196.500610 -0.000050 0.000966 2.051166 -7.227002 -37.155126 -178.356461 19.451649 747.857056 6.539029 -0.137653 9.137541 -515.877136 0.000044 -0.000108 81.012136 55.023809 -51.485136 -1337.809814 -0.000329 0.000291 -116.834539 -215.826027 -137.563548 -1196.500732 -0.000052 -0.000091 179.895722 -190.423502 231.682803 445.912018 -0.000072 -0.000095 -12.946034 -11.438457 -31.041335 -0.000186 0.000286 -2320.837891 32.746785 24.327541 13.283996 -0.000112 0.000297 -1864.391846 19.393834 -3.698751 9.295718 -0.000047 -668.867859 -289.842804 0.000001 -0.000002 0.000001 -445.911926 -0.000095 -0.000153 2.005690 -21.955155 34.836926 0.000091 0.000372 -2320.838379 -2.739059 35.231369 -31.785682 0.000227 0.000456 -1864.391968 -32.572216 -21.650414 -5.783445 0.000060 -668.867859 -289.842834 -0.000003 -0.000001 -0.000001 
-169.635941 602.315491 3813.530029 -0.414886 9.035168 -2.995658 -0.000000 -0.000109 365.648132 1.953168 -7.367884 -4.096349 0.000023 -0.000148 827.386475 0.724627 3.890763 -0.197267 0.000008 -0.000081 916.568848 21.389905 12.048692 -23.061355 0.000262 -89.182159 691.164062 22.229143 13.945453 22.923322 177.992798 19.451696 747.856384 -11.143199 -2.329756 -3.217462 515.877319 -0.000021 0.000296 -8.655687 17.404983 19.871129 1337.809814 0.000219 0.000473 -3.499355 -3.746521 -5.294278 1196.500610 -0.000097 0.000440 2.510289 -4.718431 -35.873178 -178.356461 19.451714 747.856201 6.590137 -0.114213 9.169480 -515.877319 0.000164 -0.000310 80.489715 55.162575 -51.029856 -1337.810059 0.000170 0.000103 -116.528710 -215.774910 -138.017988 -1196.500488 -0.000083 -0.000466 179.820344 -190.491394 231.706408 445.911926 -0.000052 0.000191 -12.905732 -11.595334 -31.150331 0.000273 0.000439 -2320.837891 32.539096 24.506517 13.373094 -0.000073 0.000278 -1864.392334 19.372056 -3.711734 9.337512 -0.000213 -668.867798 -289.842834 -0.000000 -0.000001 0.000002 -445.911896 -0.000048 0.000420 1.973275 -22.157984 34.994443 0.000126 0.000343 -2320.837891 -2.064569 35.435523 -32.483939 -0.000150 0.000300 -1864.392578 -33.095255 -21.905588 -5.671048 0.000091 -668.867920 -289.842804 0.000002 -0.000001 0.000000 
